<?xml version="1.0" encoding="UTF-8"?>
<!DOCTYPE svg PUBLIC "-//W3C//DTD SVG 1.1//EN" "http://www.w3.org/Graphics/SVG/1.1/DTD/svg11.dtd">
<!-- Creator: CorelDRAW X7 -->
<svg xmlns="http://www.w3.org/2000/svg" xml:space="preserve" width="128px" height="128px" version="1.1" style="shape-rendering:geometricPrecision; text-rendering:geometricPrecision; image-rendering:optimizeQuality; fill-rule:evenodd; clip-rule:evenodd"
viewBox="0 0 128 128"
 xmlns:xlink="http://www.w3.org/1999/xlink">
 <defs>
  <style type="text/css">
   <![CDATA[
    .fil0 {fill:rgb(25,18,13)}
   ]]>
  </style>
 </defs>
 <g id="Слой_x0020_1">
  <metadata id="CorelCorpID_0Corel-Layer"/>
  <g id="_1884108561552">
   <path class="fil0" d="M72 0l26 0c5,0 9,4 9,9l0 83c0,5 -4,9 -9,9l-8 0 0 -82c0,-6 -5,-10 -10,-10l-16 0c0,-5 4,-9 8,-9zm23 49l5 0c1,0 2,2 2,3l0 0c0,2 -1,3 -2,3l-5 0c-1,0 -2,-1 -2,-3l0 0c0,-1 1,-3 2,-3z"/>
   <path class="fil0" d="M51 14l26 0c5,0 9,4 9,9l0 82c0,5 -4,9 -9,9l-8 0 0 -81c0,-5 -5,-10 -10,-10l-17 0 0 0c0,-5 4,-9 9,-9zm23 49l4 0c2,0 3,1 3,3l0 0c0,1 -1,2 -3,2l-4 0c-1,0 -3,-1 -3,-2l0 0c0,-2 2,-3 3,-3z"/>
   <path class="fil0" d="M30 27l26 0c4,0 8,4 8,9l0 83c0,5 -4,9 -8,9l-26 0c-5,0 -9,-4 -9,-9l0 -83c0,-5 4,-9 9,-9zm23 49l4 0c2,0 3,2 3,3l0 0c0,2 -1,3 -3,3l-4 0c-2,0 -3,-1 -3,-3l0 0c0,-1 1,-3 3,-3z"/>
  </g>
 </g>
</svg>
