<?xml version="1.0" encoding="UTF-8"?>
<!DOCTYPE svg PUBLIC "-//W3C//DTD SVG 1.1//EN" "http://www.w3.org/Graphics/SVG/1.1/DTD/svg11.dtd">
<!-- Creator: CorelDRAW X7 -->
<svg xmlns="http://www.w3.org/2000/svg" xml:space="preserve" width="128px" height="128px" version="1.1" style="shape-rendering:geometricPrecision; text-rendering:geometricPrecision; image-rendering:optimizeQuality; fill-rule:evenodd; clip-rule:evenodd"
viewBox="0 0 128 128"
 xmlns:xlink="http://www.w3.org/1999/xlink">
 <defs>
  <style type="text/css">
   <![CDATA[
    .fil1 {fill:rgb(25,18,13)}
    .fil0 {fill:rgb(25,18,13);fill-rule:nonzero}
   ]]>
  </style>
 </defs>
 <g id="Слой_x0020_1">
  <metadata id="CorelCorpID_0Corel-Layer"/>
  <g id="_1883822166544">
   <path class="fil0" d="M15 109l1 1c0,0 -1,1 -2,1 -1,0 -1,0 -2,-1 -1,0 -1,-1 -2,-2 0,-1 0,-2 1,-3 1,-1 1,-1 2,-2 0,0 1,0 2,0 0,0 1,0 2,0 0,1 1,1 1,2 0,1 0,1 0,2l-1 0c0,-1 0,-1 0,-2 0,0 -1,0 -1,-1 -1,0 -1,0 -2,0 0,0 -1,1 -2,2 0,1 0,1 0,2 0,1 0,1 1,1 0,1 0,1 1,1 0,0 1,-1 1,-1z"/>
   <path class="fil0" d="M24 113l1 1c-1,1 -1,1 -2,1 0,0 0,0 0,0l0 -1c0,0 0,0 1,-1zm-1 -6l0 0c0,0 1,0 1,0 1,1 2,2 2,3 0,0 0,2 -1,3 0,0 0,0 0,0l-2 -1 0 -1 2 0c0,0 0,-1 0,-1 0,-1 -1,-1 -1,-2 -1,0 -1,0 -1,0l0 -1zm0 8l0 0c-1,1 -2,0 -3,0 -1,-1 -1,-1 -2,-2 0,-1 0,-2 1,-3 0,-2 1,-2 2,-3 1,0 1,0 2,0l0 1c-1,0 -1,0 -1,0 -1,0 -1,1 -1,2l2 1 0 1 -3 -2c0,1 0,2 0,3 0,0 0,1 1,1 0,0 1,0 1,0 0,0 1,0 1,0l0 1z"/>
   <path class="fil0" d="M32 111c0,0 0,0 0,0 0,0 1,0 1,0 1,0 1,1 2,1 0,1 0,1 0,2 0,1 0,2 0,2 0,1 -1,2 -1,2 -1,1 -1,1 -2,1 0,0 0,0 0,0l0 -1c0,0 0,0 0,0 1,-1 1,-1 2,-2 0,-1 0,-2 0,-3 0,0 -1,-1 -1,-1 -1,0 -1,0 -1,0l0 -1zm-6 9l0 0 4 -10 1 1 0 1c0,-1 0,-1 1,-1l0 1c-1,0 -1,0 -1,0 -1,1 -1,1 -2,2 0,1 0,2 0,3 0,0 1,1 1,1 1,0 1,0 2,0l0 1c-1,0 -1,0 -2,0 0,0 -1,0 -1,-1 0,0 0,0 0,-1l-2 4 -1 -1z"/>
   <polygon class="fil0" points="38,113 44,115 44,116 41,115 39,122 38,121 40,115 37,114 "/>
   <polygon class="fil0" points="46,115 48,115 47,121 51,116 53,116 51,124 50,124 51,118 46,123 45,123 "/>
   <path class="fil0" d="M63 117c1,0 1,0 1,0 1,0 2,0 2,1 1,1 1,2 1,3 0,1 -1,2 -1,3 -1,1 -2,1 -3,1l0 -1c1,0 1,0 2,-1 0,0 0,-1 0,-2 0,-1 0,-2 0,-2 0,-1 -1,-1 -1,-1 0,0 -1,0 -1,0l0 -1zm-2 -3l0 0 1 0 0 4c0,-1 0,-1 1,-1 0,0 0,0 0,0l0 1c0,0 -1,0 -1,1 0,0 0,1 0,2 -1,1 0,2 0,2 0,1 1,1 1,1 0,0 0,0 0,0l0 1c0,0 0,0 0,0 0,0 0,0 -1,0 0,0 0,0 -1,-1l0 4 -1 0 0 -4c0,0 -1,1 -1,1 0,0 0,0 -1,0l0 -1c1,0 1,0 2,-1 0,0 0,-1 0,-2 0,-1 0,-2 0,-3 0,0 -1,0 -1,0 -1,0 -1,0 -1,0l0 -2c0,0 0,0 0,0 1,0 1,1 2,1 0,0 0,0 0,1l1 -4zm-3 11l0 0c0,0 0,0 0,0 -1,0 -2,-1 -2,-1 -1,-1 -1,-2 -1,-4 0,-1 1,-2 1,-3 1,0 1,-1 2,-1l0 2c0,0 -1,0 -1,0 0,1 0,1 -1,2 0,2 0,2 1,3 0,0 1,1 1,1 0,0 0,0 0,0l0 1z"/>
   <polygon class="fil0" points="69,117 70,117 71,123 74,117 76,117 76,125 75,125 74,119 71,125 70,125 "/>
   <path class="fil0" d="M79 116l1 0 1 4c0,-1 0,-1 1,-1 0,0 0,-1 0,-1 0,-1 0,-2 1,-2 0,0 0,0 0,0 0,0 1,0 1,0l0 0 0 1 0 0c0,0 0,0 -1,0 0,0 0,0 0,1 0,0 0,1 0,1 0,0 -1,1 -1,1 1,0 1,0 2,1l2 2 -2 1 -2 -3c0,0 0,0 0,-1 -1,0 -1,0 -1,0l0 4 -1 0 -1 -8z"/>
   <path class="fil0" d="M94 121c-1,0 -1,1 -2,1 0,0 0,0 -1,0l0 -1 0 0c1,0 1,0 1,0 1,-1 1,-1 1,-1 0,-1 0,-1 0,-2l0 0c-1,0 -1,0 -2,1l0 -2c1,0 1,0 1,0 0,-1 0,-1 0,-1 0,0 0,-1 0,-1 -1,0 -1,0 -1,0l0 -1c0,0 0,0 1,0 0,0 0,0 1,0 0,0 0,1 0,1 0,0 1,1 1,1l0 2c0,1 1,2 1,2 0,1 0,1 0,1l-1 0c0,0 0,0 0,0zm-3 1l0 0c-1,1 -2,1 -2,0 -1,0 -1,0 -1,-1 0,0 0,-1 0,-1 0,-1 0,-1 0,-1 0,0 1,-1 1,-1 0,0 1,0 1,0 0,0 1,-1 1,-1l0 2c0,0 0,0 0,0 -1,0 -1,0 -1,0 -1,0 -1,1 -1,1 0,0 0,0 0,1 0,0 0,0 1,0 0,0 0,0 1,0l0 1zm0 -7l0 0 0 -1c0,0 -1,0 -1,0 -1,0 -1,0 -2,1 0,0 -1,0 -1,1 0,0 0,1 0,1l1 0c0,0 0,-1 1,-1 0,0 0,-1 1,-1 0,0 1,0 1,0z"/>
   <polygon class="fil0" points="96,113 97,112 100,119 103,117 101,111 102,110 105,117 105,117 106,120 105,120 105,118 99,120 "/>
   <polygon class="fil0" points="105,109 106,109 109,114 110,107 111,106 115,114 113,114 111,109 110,116 109,116 "/>
   <path class="fil0" d="M119 102l4 6 -1 1 -2 -2 0 0c-1,0 -1,0 -1,1 0,0 0,0 0,1l0 2 -1 1 0 -4c0,0 0,0 0,0 0,0 0,0 0,0l0 -1c0,0 0,0 0,-1l2 0 -2 -3 0 1 0 -2 1 0zm-1 10l0 0 -1 0 0 -2c0,-1 0,-1 1,-2l0 4zm0 -4l0 0 0 -1c-1,0 -1,0 -1,0 -1,0 -1,0 -1,0 0,-1 -1,-1 0,-1 0,-1 0,-1 1,-2l1 0 0 -2 -2 2c-1,0 -2,1 -2,1 0,1 0,2 1,2 0,1 0,1 1,1 0,0 1,0 2,0z"/>
   <polygon class="fil1" points="101,50 128,50 128,60 122,60 122,71 108,71 108,60 101,60 "/>
   <path class="fil1" d="M114 44l0 -18c-48,-27 -114,-9 -114,35 0,49 66,62 114,38l0 -20c-18,7 -48,5 -48,-17 0,-22 26,-25 48,-18zm-77 25l0 0c-1,0 -2,0 -4,-1l0 -10c0,0 1,0 4,0 4,0 8,-2 8,-8 0,-5 -4,-7 -8,-7 -3,0 -7,3 -7,7l0 41c-5,0 -10,-3 -11,-8l0 -34c0,-9 8,-17 18,-17 10,0 19,8 19,19 0,10 -10,18 -19,18z"/>
   <path class="fil0" d="M12 12l6 8 1 -1 2 3 -1 1 -2 -2 -6 4 0 -2 4 -3 -4 -5 0 -3zm0 14l0 0 2 1 -2 1 0 -2zm-5 -11l0 0 5 -3 0 0 0 3 0 -2 -3 3 0 0c0,1 1,2 2,3 1,2 1,3 1,4l0 0 0 2 0 0 0 1 0 2 0 0 -2 -3 1 -1c0,-1 -1,-4 -4,-7l0 -2z"/>
   <path class="fil0" d="M23 10c1,0 1,0 1,0 1,0 2,1 3,2 0,1 0,2 0,2 0,1 0,2 0,2 -1,1 -1,1 -2,2 -1,0 -1,0 -2,0l0 -1c1,0 1,0 2,0 0,-1 1,-1 1,-2 0,-1 0,-1 -1,-2 0,-1 -1,-2 -1,-2 0,0 -1,0 -1,0l0 -1zm-3 5l0 0c-1,-1 -1,-2 0,-3 0,-1 1,-2 1,-2 1,0 2,0 2,0l0 1c0,0 -1,0 -1,0 -1,0 -1,1 -1,1 0,1 0,2 0,3 0,1 1,1 2,2 0,0 0,0 0,0l0 1c0,0 -1,0 -1,0 -1,-1 -2,-1 -2,-3z"/>
   <path class="fil0" d="M33 2l1 0c0,0 0,0 0,1 0,0 0,0 -1,0 0,0 0,1 0,1l0 -2zm0 4l0 0c0,0 1,0 1,0 1,0 2,1 2,2 1,1 1,2 1,3 -1,1 -1,1 -1,2 0,0 -1,0 -2,1 0,0 -1,0 -1,0l0 -1c0,0 1,0 1,0 0,-1 1,-1 1,-2 0,0 0,-1 0,-2 0,-1 -1,-1 -1,-2 0,0 -1,0 -1,0l0 -1zm0 -4l0 0 0 2c0,0 -1,0 -1,0 -1,0 -2,1 -2,1 -1,0 -1,1 -1,1 0,1 0,1 1,2 0,0 0,-1 0,-1 1,-1 1,-1 2,-1 0,0 0,0 1,0l0 1c0,0 -1,0 -1,0 -1,0 -1,1 -1,1 -1,1 -1,2 0,3 0,0 0,1 1,1 0,1 1,1 1,1l0 1c-1,0 -1,0 -1,0 -1,-1 -1,-1 -2,-2 0,0 -1,-1 -1,-3 -1,-2 -1,-3 -1,-4 1,-1 2,-2 3,-2 1,-1 2,-1 2,-1 0,0 0,0 0,0z"/>
   <path class="fil0" d="M43 2c0,0 1,1 1,1 1,0 1,0 1,1 1,0 1,1 1,2 0,1 1,1 0,2 0,1 0,1 -1,2 0,0 -1,1 -1,1 0,0 -1,0 -1,0l0 -1c0,0 0,0 1,0 0,0 1,-1 1,-1 0,-1 0,-2 0,-3 0,-1 -1,-2 -1,-2 0,0 -1,0 -1,0l0 -2zm-2 12l0 0 -2 -10 1 -1 0 1c0,0 0,-1 1,-1 0,0 1,0 1,0 0,-1 1,-1 1,-1l0 2c0,0 -1,0 -1,0 0,0 -1,0 -1,1 0,0 -1,1 0,2 0,1 0,2 1,2 0,1 0,1 1,1l0 1c0,0 0,0 0,0 -1,0 -1,-1 -1,-1l0 4 -1 0z"/>
   <path class="fil0" d="M53 1c1,0 2,0 2,1 1,0 1,1 2,2 0,1 0,2 -1,3 0,0 0,1 -1,1 0,1 -1,1 -2,1 0,0 0,0 0,0l0 -1c0,0 0,0 0,0 1,0 1,0 2,-1 0,-1 0,-1 0,-2 0,-1 0,-2 -1,-3 0,0 -1,0 -1,0l0 -1zm-4 4l0 0c0,-1 0,-2 1,-3 1,-1 1,-1 2,-1 1,0 1,0 1,0l0 1c0,0 0,0 0,0 -1,0 -2,0 -2,1 0,0 -1,1 0,2 0,1 0,2 1,2 0,1 0,1 1,1l0 1c-1,0 -2,0 -2,-1 -1,0 -2,-1 -2,-3z"/>
   <path class="fil0" d="M63 0c1,0 1,0 2,0 0,0 0,1 1,1 0,0 0,1 0,1 0,1 0,1 0,1 0,0 -1,1 -1,1 0,0 1,0 1,1 0,0 0,0 0,1 0,1 0,1 0,2 -1,0 -2,0 -2,0l-1 0 0 -1 0 0c1,0 1,0 2,0 0,0 0,-1 0,-1 0,0 0,-1 0,-1 0,0 -1,0 -1,0 0,0 -1,0 -1,0l0 -2c0,0 1,0 1,0 0,0 0,0 0,0 1,0 1,0 1,-1 0,0 -1,0 -1,-1 0,0 -1,0 -1,0l0 -1zm-3 0l0 0 3 0 0 1c0,0 0,0 0,0l-2 0 0 3 2 -1c0,0 0,0 0,0l0 2 0 0 -2 0 0 2 2 0 0 1 -3 0 0 -8z"/>
   <path class="fil0" d="M73 0c0,0 0,0 0,0 1,0 2,1 3,1 0,1 0,2 0,3 0,1 0,2 0,3 -1,0 -1,1 -2,1 0,0 -1,0 -1,0l0 -1c0,0 1,0 1,0 1,-1 1,-2 1,-3 0,-1 0,-1 -1,-2 0,0 -1,-1 -1,-1 0,0 0,0 0,0l0 -1zm-4 4l0 0c0,-1 0,-2 1,-3 1,-1 2,-1 3,-1l0 1c-1,0 -1,0 -2,1 0,0 -1,1 -1,2 0,1 0,2 1,2 0,1 1,1 1,1 1,0 1,0 1,0l0 1c0,0 -1,0 -1,0 -1,0 -2,0 -2,-1 -1,-1 -1,-2 -1,-3z"/>
   <path class="fil0" d="M81 1l6 1 -1 8 -2 0 1 -7 -3 -1 -1 4c0,1 0,2 0,2 0,0 -1,1 -1,1 0,0 -1,0 -1,0 0,0 -1,0 -1,0l0 -1 1 0c0,0 0,0 0,0 0,0 0,0 1,-1 0,0 0,0 0,-1l1 -5z"/>
   <path class="fil0" d="M92 7l1 0c1,0 2,0 2,1 1,0 1,1 1,2 0,1 -1,1 -1,1 -1,1 -2,1 -3,1l0 -2c1,0 1,0 2,0 0,0 0,0 0,0 0,-1 0,-1 0,-1 0,-1 -1,-1 -2,-1l0 0 0 -1zm-1 -4l0 0 1 0 -1 3 1 1 0 1 -1 -1 -1 3 2 0c0,0 0,0 0,0l0 2c0,0 0,0 0,0l-3 -1 2 -8z"/>
   <polygon class="fil0" points="100,6 102,6 101,9 104,11 105,7 107,8 104,15 103,15 104,12 100,10 99,14 98,13 "/>
   <path class="fil0" d="M112 18c0,0 -1,1 -1,1l0 -1 0 0c0,0 1,-1 1,-1 0,0 1,0 1,-1l0 0c0,0 -1,-1 -2,-1l0 0 0 -1c0,0 0,0 0,0 1,0 2,1 3,1 0,-1 0,-1 0,-1 0,0 0,-1 0,-1 0,0 0,-1 -1,-1 -1,0 -1,0 -2,0 0,0 0,0 0,0l0 -1c0,-1 1,-1 1,0 0,0 1,0 2,0 0,0 1,1 1,1 0,0 0,1 1,1 0,0 0,1 0,1 -1,0 -1,1 -1,1l-1 2c0,1 -1,2 -1,2 0,0 0,1 0,1l-1 -1c0,0 0,0 0,-1zm-1 1l0 0c0,0 -1,0 -1,0 0,-1 -1,-1 -1,-1 -1,0 -1,-1 -2,-1 0,-1 0,-2 0,-2 1,-1 1,-1 1,-1 0,0 1,0 1,0 0,0 1,0 1,0 0,0 1,0 1,0l0 1c-1,0 -1,0 -1,0 0,0 -1,0 -1,0 0,0 0,0 0,0 0,1 0,1 0,1 0,1 0,1 1,1 0,1 0,1 1,1l0 1zm0 -7l0 0c0,0 0,0 -1,0l-1 0c1,-1 1,-1 1,-1 1,0 1,0 1,0l0 1z"/>
   <path class="fil0" d="M125 19l-4 5 0 -4 1 1 1 -2 -1 -1c0,0 -1,-1 -1,-1l0 -1c1,0 1,0 1,0l3 3zm-4 5l0 0 0 1 -1 -1 1 -2 0 -1c-1,0 -1,0 -1,0 -1,0 -1,0 -2,0l-2 1 -1 -1 2 -1c1,0 2,0 2,0 -1,0 -1,-1 -1,-2 0,0 0,-1 0,-1 1,-1 1,-1 2,-1 0,0 1,0 1,0l0 1c0,0 0,0 -1,0 0,0 0,0 -1,1 0,0 0,0 0,1 0,0 1,1 2,1l0 0 0 4z"/>
  </g>
 </g>
</svg>
