<?xml version="1.0" encoding="UTF-8"?>
<!DOCTYPE svg PUBLIC "-//W3C//DTD SVG 1.1//EN" "http://www.w3.org/Graphics/SVG/1.1/DTD/svg11.dtd">
<!-- Creator: CorelDRAW X7 -->
<svg xmlns="http://www.w3.org/2000/svg" xml:space="preserve" width="128px" height="128px" version="1.1" style="shape-rendering:geometricPrecision; text-rendering:geometricPrecision; image-rendering:optimizeQuality; fill-rule:evenodd; clip-rule:evenodd"
viewBox="0 0 128 128"
 xmlns:xlink="http://www.w3.org/1999/xlink">
 <defs>
  <style type="text/css">
   <![CDATA[
    .fil0 {fill:black}
   ]]>
  </style>
 </defs>
 <g id="Слой_x0020_1">
  <metadata id="CorelCorpID_0Corel-Layer"/>
  <g id="_1884108591152">
   <g>
    <path class="fil0" d="M100 52l0 -16c0,-20 -17,-36 -36,-36 -19,0 -36,16 -36,36l0 16c-8,0 -14,6 -14,14l0 24c0,21 17,38 38,38l24 0c21,0 38,-17 38,-38l0 -24c0,-7 -6,-14 -14,-14zm-34 38l0 12c0,1 -1,2 -2,2 -1,0 -2,-1 -2,-2l0 -12c-3,-1 -5,-4 -5,-7 0,-4 3,-7 7,-7 4,0 7,3 7,7 0,3 -2,6 -5,7zm19 -38l-42 0 0 -16c0,-12 9,-22 21,-22 12,0 21,10 21,22l0 16 0 0z"/>
   </g>
   <g>
   </g>
   <g>
   </g>
   <g>
   </g>
   <g>
   </g>
   <g>
   </g>
   <g>
   </g>
   <g>
   </g>
   <g>
   </g>
   <g>
   </g>
   <g>
   </g>
   <g>
   </g>
   <g>
   </g>
   <g>
   </g>
   <g>
   </g>
   <g>
   </g>
  </g>
 </g>
</svg>
