<?xml version="1.0" encoding="UTF-8"?>
<!DOCTYPE svg PUBLIC "-//W3C//DTD SVG 1.1//EN" "http://www.w3.org/Graphics/SVG/1.1/DTD/svg11.dtd">
<!-- Creator: CorelDRAW X7 -->
<svg xmlns="http://www.w3.org/2000/svg" xml:space="preserve" width="128px" height="128px" version="1.1" style="shape-rendering:geometricPrecision; text-rendering:geometricPrecision; image-rendering:optimizeQuality; fill-rule:evenodd; clip-rule:evenodd"
viewBox="0 0 128 128"
 xmlns:xlink="http://www.w3.org/1999/xlink">
 <defs>
  <style type="text/css">
   <![CDATA[
    .fil0 {fill:black}
   ]]>
  </style>
 </defs>
 <g id="Слой_x0020_1">
  <metadata id="CorelCorpID_0Corel-Layer"/>
  <path class="fil0" d="M112 108l-96 0c-9,0 -16,-7 -16,-16l0 -56c0,-9 7,-16 16,-16l96 0c9,0 16,7 16,16l0 56c0,9 -7,16 -16,16zm-48 -19c-1,0 -2,0 -3,0 -12,-1 -21,-10 -22,-22 -1,-7 1,-14 6,-20 5,-6 14,-9 22,-8 11,1 21,10 22,22 1,7 -1,14 -6,20 -5,5 -12,8 -19,8zm46 11l-92 0c-1,0 -1,-1 -1,-2 0,-4 -4,-8 -8,-8 -1,0 -1,0 -1,-1l0 -50c0,-1 0,-1 1,-1 4,0 8,-4 8,-8 0,-1 0,-2 1,-2l92 0c1,0 1,1 1,2 0,4 4,8 8,8 1,0 1,0 1,1l0 50c0,1 0,1 -1,1 -4,0 -8,4 -8,8 0,1 0,2 -1,2zm-91 -3l90 0c0,-5 4,-9 9,-9l0 -48c-5,0 -9,-4 -9,-9l-90 0c0,5 -4,9 -9,9l0 48c5,0 9,4 9,9z"/>
 </g>
</svg>
